<svg width="621" height="466" viewBox="0 0 621 466" fill="none" xmlns="http://www.w3.org/2000/svg">
<g clip-path="url(#clip0)">
<path d="M276.901 384.529C305.967 384.529 329.53 379.637 329.53 373.602C329.53 367.567 305.967 362.675 276.901 362.675C247.834 362.675 224.271 367.567 224.271 373.602C224.271 379.637 247.834 384.529 276.901 384.529Z" fill="black"/>
<path d="M276.901 373.602L247.338 460.509" stroke="black" stroke-width="4" stroke-miterlimit="10" stroke-linecap="round"/>
<path d="M276.901 373.602L306.464 460.509" stroke="black" stroke-width="4" stroke-miterlimit="10" stroke-linecap="round"/>
<path d="M257.045 431.973L290.002 412.125" stroke="black" stroke-width="2" stroke-miterlimit="10" stroke-linecap="round"/>
<path d="M263.666 412.125L296.632 431.973" stroke="black" stroke-width="2" stroke-miterlimit="10" stroke-linecap="round"/>
<path d="M328.697 279.528C328.563 283.382 328.621 296.878 327.946 302.651" stroke="#1F161E" stroke-miterlimit="10" stroke-linecap="round"/>
<path d="M159.382 108.847C159.382 106.109 157.019 103.889 154.103 103.889C151.188 103.889 148.825 106.109 148.825 108.847V125.962C148.825 128.701 151.188 130.921 154.103 130.921C157.019 130.921 159.382 128.701 159.382 125.962V108.847Z" fill="black"/>
<path d="M154.103 159.691C159.953 159.691 164.694 155.237 164.694 149.743C164.694 144.249 159.953 139.795 154.103 139.795C148.254 139.795 143.512 144.249 143.512 149.743C143.512 155.237 148.254 159.691 154.103 159.691Z" fill="#FBDC8E"/>
<path d="M508.177 267.888H513.18C513.706 267.886 514.21 267.689 514.581 267.34C514.953 266.991 515.163 266.518 515.165 266.024V237.136C515.166 236.891 515.115 236.649 515.014 236.423C514.914 236.197 514.767 235.992 514.581 235.82L508.26 229.882C508.076 229.709 507.858 229.571 507.618 229.477C507.377 229.383 507.119 229.334 506.859 229.334H488.187C487.661 229.336 487.158 229.533 486.786 229.882C486.414 230.232 486.205 230.705 486.202 231.198V233.987" fill="#FBDC8E"/>
<path d="M73.4366 336.818C89.2814 339.638 86.4543 428.464 56.0406 423.091C27.3198 417.968 54.1059 333.364 73.4366 336.818Z" fill="black"/>
<path d="M3.86947 347.785C16.4786 341.08 69.2585 403.461 45.116 416.292C22.3078 428.464 -11.4833 355.962 3.86947 347.785Z" fill="#FBDC8E"/>
<path d="M68.1244 466H36.2846C35.0022 466 33.7649 465.555 32.8094 464.752C31.854 463.948 31.2475 462.842 31.1059 461.645L27.0863 427.744C26.9991 427.056 27.068 426.359 27.2884 425.698C27.5088 425.037 27.8757 424.428 28.3649 423.91C28.8542 423.392 29.4547 422.977 30.1269 422.693C30.7991 422.409 31.5278 422.261 32.265 422.261H71.9772C72.7085 422.261 73.4315 422.406 74.0993 422.686C74.767 422.966 75.3645 423.375 75.853 423.886C76.3414 424.398 76.7099 425 76.9343 425.654C77.1588 426.307 77.2343 426.998 77.1559 427.681L73.3115 461.582C73.1833 462.791 72.5818 463.913 71.6234 464.729C70.665 465.545 69.4181 465.998 68.1244 466Z" fill="#969696"/>
<path d="M82.3847 302.228C94.4518 305.518 85.2034 374.08 62.095 367.767C40.2792 361.813 67.6991 298.217 82.3847 302.228Z" fill="#AB8DE5"/>
<path d="M102.282 356.777C110.622 363.529 76.6972 415.18 60.669 402.208C45.533 390.012 92.1001 348.568 102.282 356.777Z" fill="#FBDC8E"/>
<path d="M52.2879 309.356C70.351 309.356 86.888 417.686 52.2879 417.686C19.6142 417.686 30.297 309.356 52.2879 309.356Z" fill="#78E5E1"/>
<path d="M83.9859 414.929H20.4398C18.5745 414.929 17.0624 416.349 17.0624 418.101V423.882C17.0624 425.634 18.5745 427.054 20.4398 427.054H83.9859C85.8512 427.054 87.3633 425.634 87.3633 423.882V418.101C87.3633 416.349 85.8512 414.929 83.9859 414.929Z" fill="#D8D8D8"/>
<path d="M499.771 233.987H481.424C481.13 233.987 480.838 234.042 480.567 234.148C480.295 234.253 480.048 234.409 479.841 234.605C479.633 234.8 479.469 235.033 479.357 235.288C479.245 235.544 479.188 235.818 479.189 236.094V270.403C479.189 270.96 479.424 271.495 479.843 271.89C480.262 272.285 480.83 272.508 481.424 272.51H505.933C506.527 272.508 507.095 272.285 507.514 271.89C507.933 271.495 508.168 270.96 508.168 270.403V241.89C508.169 241.614 508.112 241.341 508.001 241.085C507.889 240.83 507.725 240.598 507.518 240.402L501.347 234.606C500.929 234.212 500.362 233.989 499.771 233.987Z" fill="#D8D8D8"/>
<path d="M508.177 241.068H501.947C501.615 241.068 501.297 240.944 501.063 240.724C500.828 240.504 500.696 240.205 500.696 239.893V233.987" fill="#969696"/>
<path d="M515.19 236.423H508.961C508.627 236.421 508.308 236.296 508.073 236.074C507.837 235.853 507.703 235.553 507.701 235.24V229.334" fill="#64CCC4"/>
<path d="M479.214 194.767H436.216C434.821 194.767 433.689 195.83 433.689 197.141V210.331C433.689 211.642 434.821 212.705 436.216 212.705H479.214C480.61 212.705 481.741 211.642 481.741 210.331V197.141C481.741 195.83 480.61 194.767 479.214 194.767Z" fill="#78E5E1"/>
<path d="M457.707 225.003L463.494 208.538H451.919L457.707 225.003Z" fill="#78E5E1"/>
<path d="M446.24 199.545L441.387 207.433H451.085L446.24 199.545Z" fill="white"/>
<path d="M469.182 207.433L474.035 199.545H464.328L469.182 207.433Z" fill="white"/>
<path d="M457.707 206.916C459.719 206.916 461.351 205.384 461.351 203.493C461.351 201.603 459.719 200.07 457.707 200.07C455.694 200.07 454.062 201.603 454.062 203.493C454.062 205.384 455.694 206.916 457.707 206.916Z" fill="white"/>
<path d="M453.962 156.754H425.742C424.521 156.754 423.532 157.683 423.532 158.829V174.856C423.532 176.002 424.521 176.931 425.742 176.931H453.962C455.183 176.931 456.172 176.002 456.172 174.856V158.829C456.172 157.683 455.183 156.754 453.962 156.754Z" fill="#D8D8D8"/>
<path d="M424.558 157.388L439.852 166.843" stroke="#969696" stroke-width="0.82" stroke-linecap="round" stroke-linejoin="round"/>
<path d="M456.172 156.754L439.852 166.843" stroke="#969696" stroke-width="0.82" stroke-linecap="round" stroke-linejoin="round"/>
<path d="M456.172 161.14C458.751 161.14 460.842 159.176 460.842 156.754C460.842 154.331 458.751 152.367 456.172 152.367C453.593 152.367 451.502 154.331 451.502 156.754C451.502 159.176 453.593 161.14 456.172 161.14Z" fill="#FBDC8E"/>
<path d="M457.42 159.728H456.757V155.333L455.427 155.821V155.222L457.316 154.513H457.42V159.728Z" fill="white"/>
<path d="M619.974 169.059H498.219C497.653 169.059 497.194 169.491 497.194 170.023V170.618C497.194 171.15 497.653 171.582 498.219 171.582H619.974C620.541 171.582 621 171.15 621 170.618V170.023C621 169.491 620.541 169.059 619.974 169.059Z" fill="#D8D8D8"/>
<path d="M549.648 118.975H542.251C541.072 118.975 540.116 119.873 540.116 120.98V167.054C540.116 168.162 541.072 169.059 542.251 169.059H549.648C550.827 169.059 551.783 168.162 551.783 167.054V120.98C551.783 119.873 550.827 118.975 549.648 118.975Z" fill="#969696"/>
<path d="M555.844 130.717H553.559C552.578 130.717 551.783 131.464 551.783 132.385V167.391C551.783 168.312 552.578 169.059 553.559 169.059H555.844C556.826 169.059 557.621 168.312 557.621 167.391V132.385C557.621 131.464 556.826 130.717 555.844 130.717Z" fill="#D8D8D8"/>
<path d="M561.74 130.717H559.339C558.39 130.717 557.621 131.439 557.621 132.33V167.446C557.621 168.337 558.39 169.059 559.339 169.059H561.74C562.689 169.059 563.458 168.337 563.458 167.446V132.33C563.458 131.439 562.689 130.717 561.74 130.717Z" fill="#969696"/>
<path d="M565.973 133.461L564.003 134.311C563.082 134.708 562.678 135.731 563.101 136.596L578.602 168.309C579.025 169.174 580.114 169.554 581.035 169.156L583.005 168.307C583.926 167.91 584.33 166.887 583.907 166.022L568.406 134.308C567.984 133.443 566.894 133.064 565.973 133.461Z" fill="#D8D8D8"/>
<path d="M545.946 156.386C547.746 156.386 549.206 155.014 549.206 153.323C549.206 151.631 547.746 150.26 545.946 150.26C544.145 150.26 542.685 151.631 542.685 153.323C542.685 155.014 544.145 156.386 545.946 156.386Z" fill="#D8D8D8"/>
<path d="M548.898 158.218H542.993C542.561 158.218 542.21 158.548 542.21 158.955C542.21 159.361 542.561 159.691 542.993 159.691H548.898C549.331 159.691 549.682 159.361 549.682 158.955C549.682 158.548 549.331 158.218 548.898 158.218Z" fill="#D8D8D8"/>
<path d="M548.898 161.986H542.993C542.561 161.986 542.21 162.316 542.21 162.722C542.21 163.129 542.561 163.459 542.993 163.459H548.898C549.331 163.459 549.682 163.129 549.682 162.722C549.682 162.316 549.331 161.986 548.898 161.986Z" fill="#D8D8D8"/>
<path d="M489.154 237.527H483.25C482.817 237.527 482.466 237.857 482.466 238.264C482.466 238.67 482.817 239 483.25 239H489.154C489.587 239 489.938 238.67 489.938 238.264C489.938 237.857 489.587 237.527 489.154 237.527Z" fill="#969696"/>
<path d="M489.154 241.068H483.25C482.817 241.068 482.466 241.398 482.466 241.804C482.466 242.211 482.817 242.541 483.25 242.541H489.154C489.587 242.541 489.938 242.211 489.938 241.804C489.938 241.398 489.587 241.068 489.154 241.068Z" fill="#969696"/>
<path d="M504.466 247.123H482.908C482.475 247.123 482.124 247.453 482.124 247.859C482.124 248.266 482.475 248.595 482.908 248.595H504.466C504.898 248.595 505.249 248.266 505.249 247.859C505.249 247.453 504.898 247.123 504.466 247.123Z" fill="#969696"/>
<path d="M504.466 250.601H482.908C482.475 250.601 482.124 250.93 482.124 251.337C482.124 251.744 482.475 252.073 482.908 252.073H504.466C504.898 252.073 505.249 251.744 505.249 251.337C505.249 250.93 504.898 250.601 504.466 250.601Z" fill="#969696"/>
<path d="M504.466 254.079H482.908C482.475 254.079 482.124 254.408 482.124 254.815C482.124 255.222 482.475 255.551 482.908 255.551H504.466C504.898 255.551 505.249 255.222 505.249 254.815C505.249 254.408 504.898 254.079 504.466 254.079Z" fill="#969696"/>
<path d="M555.311 136.505C555.311 136.19 555.038 135.934 554.702 135.934C554.366 135.934 554.093 136.19 554.093 136.505V163.263C554.093 163.579 554.366 163.835 554.702 163.835C555.038 163.835 555.311 163.579 555.311 163.263V136.505Z" fill="#969696"/>
<path d="M529.7 170.32H524.48C523.333 170.32 522.403 171.194 522.403 172.271C522.403 173.348 523.333 174.221 524.48 174.221H529.7C530.847 174.221 531.777 173.348 531.777 172.271C531.777 171.194 530.847 170.32 529.7 170.32Z" fill="#D8D8D8"/>
<path d="M593.714 170.32H588.493C587.346 170.32 586.417 171.194 586.417 172.271C586.417 173.348 587.346 174.221 588.493 174.221H593.714C594.86 174.221 595.79 173.348 595.79 172.271C595.79 171.194 594.86 170.32 593.714 170.32Z" fill="#D8D8D8"/>
<path d="M396.662 174.135H366.215C360.689 174.135 356.208 178.343 356.208 183.535V197.485C356.208 202.676 360.689 206.885 366.215 206.885H396.662C402.189 206.885 406.67 202.676 406.67 197.485V183.535C406.67 178.343 402.189 174.135 396.662 174.135Z" fill="#D8D8D8"/>
<path d="M374.238 179.407H366.649V201.613H374.238V179.407Z" fill="#AB8DE5"/>
<path d="M385.238 194.18H377.649V201.621H385.238V194.18Z" fill="#AB8DE5"/>
<path d="M396.229 187.913H388.64V201.613H396.229V187.913Z" fill="#AB8DE5"/>
<path d="M154.103 119.751C149.909 119.75 145.756 120.525 141.881 122.031C138.006 123.538 134.485 125.747 131.519 128.533C128.553 131.318 126.2 134.624 124.595 138.264C122.99 141.903 122.164 145.804 122.164 149.743H186.043C186.043 145.804 185.217 141.903 183.612 138.264C182.006 134.624 179.654 131.318 176.688 128.533C173.722 125.747 170.201 123.538 166.326 122.031C162.45 120.525 158.297 119.75 154.103 119.751Z" fill="#AB8DE5"/>
<path d="M154.103 109.599V0.783302" stroke="black" stroke-width="2" stroke-linecap="round" stroke-linejoin="round"/>
<path d="M404.618 450.146C404.618 452.002 403.459 463.713 405.769 464.794C408.079 465.875 433.472 466.533 434.623 465.444C435.774 464.355 436.466 462.084 435.457 461.433C434.448 460.783 424.616 458.942 423.282 458.073C421.947 457.204 420.104 452.59 420.78 450.146" fill="#1F161E"/>
<path d="M328.697 297.066L342.99 292.249C342.373 267.755 336.277 213.026 327.621 204.887C325.586 202.984 285.34 199.663 278.16 199.663C235.312 199.663 222.603 204.253 219.376 207.292C209.368 216.692 206.249 260.243 206.249 275.494C206.249 290.745 252.116 298.656 252.116 298.656L305.88 302.126C305.88 302.126 317.672 303.27 327.871 303.834C328.096 300.896 328.697 297.066 328.697 297.066Z" fill="#78E5E1"/>
<path d="M371.286 311.267C375.197 310.178 414.092 304.218 422.565 312.05C431.037 319.883 457.707 432.185 457.707 434.77H436.233L407.245 376.171" fill="#1F161E"/>
<path d="M229.675 301.28C228.699 305.862 222.836 310.782 222.836 335.745C222.836 370.265 252.942 370.994 263.749 370.994C297.424 370.994 351.905 361.594 355.583 359.871C358.026 363.709 403 449.95 403.209 451.877H423.916C423.916 451.877 411.081 322.852 387.923 308.22C380.401 303.52 246.946 298.492 229.675 301.28Z" fill="#55B79D"/>
<path d="M350.929 276.042C345.492 276.042 341.005 277.256 328.697 279.528L328.054 301.648C339.73 297.231 342.44 291.089 345.826 291.089C354.282 291.089 358.702 295.186 363.697 295.186C367.183 295.186 373.454 292.617 373.454 289.123C373.454 281.807 357.668 276.042 350.929 276.042Z" fill="#F8CDBA"/>
<path d="M437.45 433.219C437.45 435.083 436.291 446.786 438.601 447.875C440.911 448.963 466.305 449.606 467.455 448.525C468.606 447.444 469.298 445.164 468.289 444.514C467.28 443.864 457.448 442.015 456.114 441.146C454.78 440.276 452.937 435.663 453.612 433.219" fill="#1F161E"/>
<path d="M285.74 204.872C285.74 207.825 267.486 207.911 267.486 204.872V180.856H285.74V204.872Z" fill="#F8CDBA"/>
<path d="M279.794 188.775C278.127 188.775 267.486 193.193 267.486 195.66V182.626C270.137 182.626 279.794 188.775 279.794 188.775Z" fill="#1F161E"/>
<path d="M283.322 189.793C295.527 189.793 305.421 180.5 305.421 169.036C305.421 157.572 295.527 148.278 283.322 148.278C271.117 148.278 261.223 157.572 261.223 169.036C261.223 180.5 271.117 189.793 283.322 189.793Z" fill="#F8CDBA"/>
<path d="M306.13 152.743C303.395 156.824 297.674 158.696 291.478 158.696C286.199 158.696 278.51 157.255 273.04 160.185C270.079 161.751 266.685 165.315 266.001 172.451C266.001 173.673 264.525 178.412 264.525 179.939C264.525 180.981 263.274 181.663 261.189 181.663C260.114 181.663 257.987 180.026 257.987 177.527C257.987 174.636 259.213 173.61 259.213 171.159C259.213 168.707 256.019 166.349 256.019 159.534C256.019 149.72 262.69 143.673 267.41 143.673C271.714 143.673 273.065 144.613 273.607 145.012C273.607 136.09 286.116 132.017 291.078 132.017C296.748 132.017 299.417 134.203 299.417 136.983C299.417 141.417 297.165 145.184 296.023 146.03C298.609 143.845 301.968 142.642 305.446 142.654C311.943 142.654 314.128 146.665 314.128 149.406C314.128 155.367 306.514 160.89 303.678 160.89C302.965 159.472 302.128 158.112 301.177 156.824" fill="#1F161E"/>
<path d="M266.685 176.203C269.287 176.203 271.397 174.222 271.397 171.777C271.397 169.333 269.287 167.352 266.685 167.352C264.083 167.352 261.973 169.333 261.973 171.777C261.973 174.222 264.083 176.203 266.685 176.203Z" fill="#F8CDBA"/>
<path d="M305.638 172.843C307.655 172.843 309.291 172.043 309.291 171.057C309.291 170.07 307.655 169.271 305.638 169.271C303.621 169.271 301.986 170.07 301.986 171.057C301.986 172.043 303.621 172.843 305.638 172.843Z" fill="#FA9E9F"/>
<path d="M282.663 172.843C284.68 172.843 286.316 172.043 286.316 171.057C286.316 170.07 284.68 169.271 282.663 169.271C280.646 169.271 279.011 170.07 279.011 171.057C279.011 172.043 280.646 172.843 282.663 172.843Z" fill="#FA9E9F"/>
<path d="M296.715 167.352C297.399 168.268 300.885 172.114 297.207 173.673" stroke="#1F161E" stroke-miterlimit="10" stroke-linecap="round"/>
<path d="M289.843 178.161C288.743 178.161 287.05 176.877 286.157 175.725" stroke="#1F161E" stroke-miterlimit="10" stroke-linecap="round"/>
<path d="M318.981 233.909C320.649 237.238 328.697 269.353 328.697 279.528" stroke="#1F161E" stroke-miterlimit="10" stroke-linecap="round"/>
<path d="M206.249 272.909C206.249 309.011 206.608 319.484 222.036 319.484C257.595 319.484 311.351 292.069 320.933 292.069C329.397 292.069 333.817 296.173 338.812 296.173C342.29 296.173 348.561 293.596 348.561 290.11C348.561 282.786 332.774 277.021 326.045 277.021C310.892 277.021 250.423 290.745 248.947 290.745C247.471 290.745 244.986 290.142 244.986 287.807C244.986 283.57 247.938 273.779 248.322 272.925L206.249 272.909Z" fill="#F8CDBA"/>
<path d="M257.203 241.42C256.186 244.17 248.255 272.58 247.338 276.042" stroke="#1F161E" stroke-miterlimit="10" stroke-linecap="round"/>
<path d="M558.286 461.164C558.886 463.307 561.221 464.587 563.501 464.023C565.782 463.46 567.145 461.267 566.545 459.125L523.849 306.584C523.249 304.441 520.914 303.161 518.634 303.725C516.353 304.288 514.99 306.481 515.59 308.623L558.286 461.164Z" fill="#969696"/>
<path d="M515.166 308.63C515.765 306.488 514.403 304.294 512.122 303.731C509.841 303.168 507.506 304.448 506.907 306.59L464.21 459.132C463.611 461.274 464.973 463.467 467.254 464.03C469.535 464.593 471.87 463.313 472.469 461.171L515.166 308.63Z" fill="#969696"/>
<path d="M456.249 308.629C456.849 306.487 455.486 304.293 453.206 303.73C450.925 303.167 448.59 304.447 447.99 306.589L405.294 459.131C404.694 461.273 406.057 463.466 408.338 464.029C410.618 464.592 412.953 463.312 413.553 461.17L456.249 308.629Z" fill="#D8D8D8"/>
<path d="M498.628 458.349C499.217 460.497 501.549 461.79 503.837 461.237C506.124 460.683 507.5 458.492 506.911 456.344L464.931 303.35C464.341 301.202 462.009 299.909 459.721 300.463C457.434 301.017 456.058 303.207 456.647 305.356L498.628 458.349Z" fill="#D8D8D8"/>
<path d="M215.724 308.633C216.324 306.491 214.961 304.297 212.68 303.734C210.4 303.171 208.065 304.451 207.465 306.593L164.769 459.135C164.169 461.277 165.532 463.47 167.813 464.033C170.093 464.596 172.428 463.316 173.028 461.174L215.724 308.633Z" fill="#969696"/>
<path d="M258.12 461.174C258.719 463.316 261.054 464.596 263.335 464.033C265.615 463.47 266.978 461.277 266.378 459.135L223.682 306.594C223.082 304.451 220.747 303.171 218.467 303.735C216.186 304.298 214.823 306.491 215.423 308.633L258.12 461.174Z" fill="#969696"/>
<path d="M541.451 296.197H128.51C126.423 296.197 124.732 297.785 124.732 299.745V304.515C124.732 306.475 126.423 308.064 128.51 308.064H541.451C543.537 308.064 545.228 306.475 545.228 304.515V299.745C545.228 297.785 543.537 296.197 541.451 296.197Z" fill="#D8D8D8"/>
<path d="M154.701 308.635C155.3 306.493 153.938 304.3 151.657 303.737C149.376 303.173 147.042 304.453 146.442 306.595L103.745 459.137C103.146 461.279 104.509 463.472 106.789 464.035C109.07 464.598 111.405 463.318 112.004 461.176L154.701 308.635Z" fill="#D8D8D8"/>
<path d="M197.096 461.175C197.695 463.317 200.03 464.597 202.311 464.034C204.592 463.47 205.954 461.277 205.355 459.135L162.658 306.594C162.059 304.452 159.724 303.172 157.443 303.735C155.162 304.298 153.8 306.491 154.399 308.633L197.096 461.175Z" fill="#D8D8D8"/>
<path d="M433.881 296.197H356.733L370.71 251.047C371.059 249.958 371.774 249.004 372.748 248.328C373.722 247.651 374.903 247.289 376.114 247.295H441.578C442.438 247.282 443.289 247.458 444.064 247.809C444.839 248.159 445.516 248.675 446.041 249.315C446.565 249.955 446.924 250.701 447.087 251.494C447.251 252.287 447.215 253.105 446.982 253.883L433.881 296.197Z" fill="black"/>
<path d="M404.777 276.175C407.384 276.175 409.497 274.19 409.497 271.742C409.497 269.293 407.384 267.308 404.777 267.308C402.17 267.308 400.057 269.293 400.057 271.742C400.057 274.19 402.17 276.175 404.777 276.175Z" fill="white"/>
<path d="M365.898 293.024H311.768V296.197H365.898V293.024Z" fill="black"/>
</g>
<defs>
<clipPath id="clip0">
<rect width="621" height="466" fill="white"/>
</clipPath>
</defs>
</svg>
